<svg id="Logo" xmlns="http://www.w3.org/2000/svg" viewBox="0 0 360 360"><defs><style>.cls-1{fill:#454545;stroke:#242424;stroke-miterlimit:10;stroke-width:5px;}.cls-2{fill:#242424;}</style></defs><path class="cls-1" d="M271.85,231.53l-.7.33a4.9,4.9,0,0,1-3,.44c-2-.35-4-1.34-6.09-.69-1-.8-2.11-.2-3.15-.42-.62-.14-1.36.13-1.84-.56-.94-1.37-2.54-1.2-3.89-1.61-.53-.16-.25-.47-.08-.71.28-.41.87-.6.84-1.27-.51-.12-.75.46-1.22.43s-.81.41-1.28.13c0-.34.34-.29.5-.45s.28-.31.19-.54-.25-.21-.43-.21-.92.34-.59-.51c.06-.16-.34-.12-.53-.17s-.64-.21-.55-.61c.2-.94-.46-.84-.92-.69-1.42.47-2.14-.75-3.12-1.26-.32-.17-.55-.63-1-.72-.19,0-.5-.18-.51-.3-.09-1.49-1.69-1.06-2.35-2,0-.19.8-.52.06-1-.18-.13,0-.94.38-1.4a19.75,19.75,0,0,1,3.74-3.34,18.37,18.37,0,0,0,5.17-6.74c1.54-3.17.57-5.61-2.62-7.14a9.15,9.15,0,0,0-4-1.12,2.28,2.28,0,0,1-1.63-.55,1.74,1.74,0,0,0-1.26-.38,13.93,13.93,0,0,1-4.25-.72,42.42,42.42,0,0,0-4.5-.66c-2.65-.47-5.36-.42-8-.63-2.17-.18-4.26-.75-6.39-1.1a25.69,25.69,0,0,0-3.22-.7c-.61,0-.66-.63-1.06-.9a19.44,19.44,0,0,0-5.3-2.18c-.27-.08-.61-.2-.53-.52.27-1-.45-.76-.87-.69-1,.16-1.79,0-2.17-1-.1-.29-.54-.44-.6-.45-.71,0-.83-.46-.84-1s-.3-.51-.64-.43a1.14,1.14,0,0,1-1.38-.61,1.66,1.66,0,0,0-1.15-.64c-.52-.1-1.13.15-.93-.89.1-.49-.87-.46-1.28-.83s-.81-.22-.8-.8c0-.09-.2-.29-.25-.27-.89.31-1.63-.36-2.4-.54s-2-.2-2.51-1.44c-.18-.47-1.12-.15-1.6.11s-.79.33-1.05-.33-1-.58-1.51-.39c-.93.38-.68-.2-.62-.78a1.65,1.65,0,0,1-1.4.31,6.7,6.7,0,0,0-3,.1c-5.23,1-9.52-.84-13.57-4a96.64,96.64,0,0,0-10.14-7.12,22,22,0,0,1-2.15-1,4.28,4.28,0,0,1-1.85-2.21c-.53-1.62-2.1-1.95-3.63-2a7.82,7.82,0,0,1-1.73-.23,2.55,2.55,0,0,0-3.07,1.09,40.82,40.82,0,0,0-3.66,7,5.11,5.11,0,0,0,.43,4.11,101.49,101.49,0,0,0,5.59,11.84,34.86,34.86,0,0,1,4.66,14.82c0,.17,0,.34,0,.51.11,2.1-.16,2.27-2.21,2.63s-3.76-.64-5.63-1a5.19,5.19,0,0,0-3.41.34c-1.24.65-2.63.43-3.93.75-.51.12-.72-.44-.89-.85s-.38-.65-.83-.29c-.23.19-.48.53-.8.36s-.07-.62-.08-.93a2.36,2.36,0,0,0,0-.28.25.25,0,0,0-.36.15c-.42,1.42-1.39,1.68-2.78,1.64-2.18-.06-2.64.78-2,2.86a9,9,0,0,0,3.79,5.35c1.34.82,2.56,1.9,4.32,2.23a13.63,13.63,0,0,1,6.69,3.25c1.32,1.19,3.09,1.62,4.65,2.4a14.26,14.26,0,0,1,2.52,1.91,29.9,29.9,0,0,1,5.48,5.7,11.31,11.31,0,0,0,1.71,1.45c1.34,1.27,1.89,3.19,3.55,4.16a.45.45,0,0,1,.19.24c.24,1.52,1.63,2.31,2.28,3.59a8.1,8.1,0,0,0,3.22,3.47c.41.23.25.72.49,1s.25,1.71,1.31.5c.49-.56,1.09.2,1.08.6,0,1.19,1,2.1.79,3.32a.23.23,0,0,0,0,.2c1.47,1.74.89,4.14,2,6a3.47,3.47,0,0,0,.67,1,3.75,3.75,0,0,1,1.08,2.61,11.71,11.71,0,0,0,2.39,6.43,10.29,10.29,0,0,1,1.86,3.87c.05.17.06.38.18.48,1.69,1.6,1.82,3.85,2.47,5.88,0,.07,0,.16.07.2,1.17,1,1.5,2.61,2.82,3.46.26.17.58.32.6.66.1,1.26,1,2.23,1.15,3.49a1.16,1.16,0,0,0,1,1c.23.06.55.1.59.31A108.29,108.29,0,0,0,271.85,231.53Z"/><path class="cls-2" d="M180,77A103,103,0,1,1,77,180,103.12,103.12,0,0,1,180,77m0-5A108,108,0,1,0,288,180,108,108,0,0,0,180,72Z"/><path class="cls-2" d="M146.88,145.13H131.4v-27.2h5.52v22.32h10Z"/><path class="cls-2" d="M187.39,140.17l.13,4.52c-1.45.3-2.79.52-4.05.68a28.34,28.34,0,0,1-3.59.24,14.51,14.51,0,0,1-5.44-.84,6.7,6.7,0,0,1-3.21-2.68,12,12,0,0,1-1.6-4.32,37,37,0,0,1-.44-6.24,37.37,37.37,0,0,1,.5-6.64,10.69,10.69,0,0,1,1.71-4.34,6.59,6.59,0,0,1,3.19-2.38,14.94,14.94,0,0,1,5-.72,34.31,34.31,0,0,1,8,1.08l-.16,4.4a45.27,45.27,0,0,0-6.56-.6,13.77,13.77,0,0,0-2.22.16,4.62,4.62,0,0,0-1.52.54,3,3,0,0,0-1,1,7.28,7.28,0,0,0-.65,1.62,14.31,14.31,0,0,0-.42,2.64c-.1,1.1-.14,2.44-.14,4a28.92,28.92,0,0,0,.23,4,6.52,6.52,0,0,0,.87,2.58,3.41,3.41,0,0,0,1.69,1.4,7.64,7.64,0,0,0,2.73.42c1.12,0,2.25,0,3.39-.14S186.14,140.36,187.39,140.17Z"/><path class="cls-2" d="M220.36,122.25q-4.37,0-4.36,2.88a2.17,2.17,0,0,0,1.08,2,14,14,0,0,0,1.8.82c.82.34,1.91.72,3.28,1.14a25.1,25.1,0,0,1,3.36,1.32,7.67,7.67,0,0,1,2.19,1.58,5.43,5.43,0,0,1,1.23,2.1,9.71,9.71,0,0,1,.38,2.88,9.59,9.59,0,0,1-.69,3.78,7.15,7.15,0,0,1-1.92,2.7,8.27,8.27,0,0,1-3,1.64,12.38,12.38,0,0,1-3.83.56,37.73,37.73,0,0,1-7.64-1l-1.45-.28.56-4.28a66.75,66.75,0,0,0,8.2.72q4.24,0,4.24-3.52a2.36,2.36,0,0,0-1-2,15.15,15.15,0,0,0-3.92-1.56,28.2,28.2,0,0,1-3.94-1.42,9,9,0,0,1-2.63-1.72,5.77,5.77,0,0,1-1.43-2.22,8.26,8.26,0,0,1-.44-2.84c0-2.74.81-4.78,2.45-6.1a10.63,10.63,0,0,1,6.82-2,33.28,33.28,0,0,1,3.37.2c1.25.14,2.63.34,4.16.6l1.43.28-.43,4.36c-1.9-.21-3.5-.37-4.82-.48S221.13,122.25,220.36,122.25Z"/></svg>