<svg id="Layer_1" data-name="Layer 1" xmlns="http://www.w3.org/2000/svg" viewBox="0 0 216 216"><defs><style>.cls-1{fill:#242424;}</style></defs><path class="cls-1" d="M180,81a99,99,0,1,1-99,99,99.11,99.11,0,0,1,99-99m0-9A108,108,0,1,0,288,180,108,108,0,0,0,180,72Z" transform="translate(-72 -72)"/><path class="cls-1" d="M226.59,215.52q-6.79.55-13.43.55a29.77,29.77,0,0,1-10.74-1.66,13.57,13.57,0,0,1-6.72-5.53,26.52,26.52,0,0,1-3.4-10.19,108.46,108.46,0,0,1-.94-15.64q0-9.48.55-16a58.42,58.42,0,0,1,1.66-10.43,28.53,28.53,0,0,1,2.61-6.4,11.38,11.38,0,0,1,3.95-4.11,17.11,17.11,0,0,1,6-2.13,51.36,51.36,0,0,1,8.77-.63,179.2,179.2,0,0,1,25.91,2.37l.63-17.38q-17.7-4.26-31.44-4.27-11.85,0-19.75,2.85a26.4,26.4,0,0,0-10.77,7.11,26.78,26.78,0,0,0-9.1-6.1q-8.06-3.31-21.49-3.32a113,113,0,0,0-14.22.95q-7.42.95-15.95,2.69l.47,17.85q7.43-1.11,14.22-1.66t13.43-.55a29.77,29.77,0,0,1,10.74,1.66,13.57,13.57,0,0,1,6.72,5.53,26.52,26.52,0,0,1,3.4,10.19,108.46,108.46,0,0,1,.94,15.64q0,9.48-.55,16a58.42,58.42,0,0,1-1.66,10.43,28.53,28.53,0,0,1-2.61,6.4,11.35,11.35,0,0,1-3.94,4.11,17.23,17.23,0,0,1-6,2.13,51.36,51.36,0,0,1-8.77.63,179.2,179.2,0,0,1-25.91-2.37l-.63,17.38q17.7,4.26,31.44,4.27,11.85,0,19.75-2.85a26.4,26.4,0,0,0,10.77-7.11,26.78,26.78,0,0,0,9.1,6.1q8.06,3.32,21.49,3.31a112.94,112.94,0,0,0,14.22-.94q7.42-1,15.95-2.69l-.47-17.85Q233.39,215,226.59,215.52Z" transform="translate(-72 -72)"/></svg>